<svg xmlns="http://www.w3.org/2000/svg" viewBox="0 0 80 40" fill="currentColor">
  <defs>
    <linearGradient id="logoGradient" x1="0%" y1="0%" x2="100%" y2="100%">
      <stop offset="0%" style="stop-color:#00ffcc;stop-opacity:1" />
      <stop offset="100%" style="stop-color:#00d4ff;stop-opacity:1" />
    </linearGradient>
  </defs>

  <!-- C Letter -->
  <path d="M 15,6 C 7,6 2,11 2,20 C 2,29 7,34 15,34 C 20,34 24,31 26,27 L 22,24 C 20,27 18,30 15,30 C 9,30 6,25 6,20 C 6,15 9,10 15,10 C 18,10 20,12 21,14 L 25,11 C 23,8 19,6 15,6 Z" fill="url(#logoGradient)" stroke="url(#logoGradient)" stroke-width="0.5" />

  <!-- G Letter -->
  <path d="M 45,6 C 37,6 32,11 32,20 C 32,29 37,34 45,34 C 52,34 57,30 58,25 L 58,19 L 45,19 L 45,23 L 54,23 C 53,26 49,30 45,30 C 39,30 36,25 36,20 C 36,15 39,10 45,10 C 48,10 51,12 53,14 L 56,11 C 54,8 50,6 45,6 Z" fill="url(#logoGradient)" stroke="url(#logoGradient)" stroke-width="0.5" />

  <!-- Professional accent - three dots representing excellence -->
  <circle cx="65" cy="20" r="2" fill="url(#logoGradient)" opacity="0.8" />
  <circle cx="71" cy="20" r="2" fill="url(#logoGradient)" opacity="0.6" />
  <circle cx="77" cy="20" r="2" fill="url(#logoGradient)" opacity="0.4" />
</svg>
